<svg id="切圖" xmlns="http://www.w3.org/2000/svg" viewBox="0 0 36 24"><defs><style>.cls-1{fill:#ff8392;}</style></defs><title>ic_announce</title><path class="cls-1" d="M23,1.74a.66.66,0,0,0-.58-.1L11.26,5H6.65A2.12,2.12,0,0,0,4.54,7.05H4.12a3.13,3.13,0,0,0,0,6.25h.42a2.13,2.13,0,0,0,1.38,1.94v5.31a2.36,2.36,0,0,0,4.71,0V15.37h.63l11.15,3.34a.63.63,0,0,0,.19,0,.68.68,0,0,0,.39-.13.66.66,0,0,0,.27-.53V2.27A.66.66,0,0,0,23,1.74ZM2.32,10.18a1.81,1.81,0,0,1,1.8-1.81h.42V12H4.12A1.81,1.81,0,0,1,2.32,10.18ZM5.85,7.1a.8.8,0,0,1,.8-.8h4v7.75h-4a.8.8,0,0,1-.8-.79ZM9.32,20.55a1,1,0,0,1-2.09,0V15.37H9.32v5.18ZM21.94,17.2l-9.93-3V6.13l9.93-3ZM27.05,4.86a.62.62,0,0,1-.29-1.16L31.85,1a.61.61,0,0,1,.58,1.08L27.34,4.79A.59.59,0,0,1,27.05,4.86Zm-.08,6a.62.62,0,0,1,0-1.23l6.7-.16a.62.62,0,1,1,0,1.23l-6.7.16Zm4.89,9.07a.67.67,0,0,1-.39-.14l-4.73-3.9a.62.62,0,0,1-.09-.86.63.63,0,0,1,.87-.09l4.73,3.9a.61.61,0,0,1,.09.86A.62.62,0,0,1,31.86,19.88Z"/></svg>